<!-- Generated by IcoMoon.io -->
<svg version="1.1" xmlns="http://www.w3.org/2000/svg" width="32" height="32" viewBox="0 0 32 32">
<title>logo3</title>
<path fill="#fff" d="M12.55 9.745c-2.176 5.005-5.19 9.606-8.988 13.532 0.188-0.194 0.758-0.292 1.005-0.386 0.58-0.223 1.174-0.417 1.749-0.652 2.922-1.196 7.315-7.295 7.692-7.706 0.159-0.173 0.47 0.241 0.786 0.515 1.469 1.273 2.643 2.841 4.028 4.198 0.746 0.732 1.499 1.457 2.235 2.199 0.335 0.337 0.667 0.676 0.992 1.023 0.299 0.319 0.594 0.654 0.985 0.863 0.466 0.249 1.021 0.358 1.538 0.434 0.346 0.051 0.695 0.081 1.045 0.087 3.013 0.069 5.119-1.705 5.701-2.231-0.065 0.059-0.843-0.286-0.95-0.323-0.304-0.107-0.608-0.217-0.91-0.331-0.628-0.237-1.252-0.486-1.87-0.749-1.235-0.526-2.449-1.103-3.636-1.731-2.404-1.271-4.636-2.775-6.829-4.378-0.572-0.417-1.118-0.875-1.671-1.316-0.030-0.025-0.062-0.049-0.077-0.084-0.103-0.227 0.544-0.606 0.697-0.688 0.302-0.163 0.657-0.273 1.003-0.276 0.351-0.002 0.699 0.093 1.051 0.092 0.496-0.001 0.834-0.333 0.941-0.801 0.138-0.604-0.075-1.133-0.522-1.549-0.659-0.613-1.436-1.114-2.208-1.57-0.899-0.531-1.877-1.118-2.928-1.266-0.253-0.036-0.525-0.039-0.748 0.086-0.4 0.226-0.515 0.722-0.343 1.132 0.075 0.18 0.252 0.299 0.388 0.428 0.11 0.103 0.211 0.229 0.231 0.379 0.015 0.11-0.016 0.22-0.058 0.322-0.078 0.192-0.166 0.379-0.249 0.567-0.028 0.059-0.054 0.118-0.080 0.179z"></path>
<path fill="#fff" d="M15.037 30.619l-0.257-0.133c-0.282-0.146-6.928-3.641-9.759-8.948-2.607-4.887-3.285-9.124-3.395-11.819-0.121-2.947 0.384-4.725 0.406-4.799l0.084-0.291 0.287-0.099c0.218-0.076 5.396-1.85 12.009-1.895 7.069-0.053 13.006 1.899 13.255 1.982l0.282 0.094 0.092 0.283c0.030 0.093 0.735 2.311 0.698 5.646-0.034 3.070-0.736 7.705-3.887 12.349-2.982 4.397-9.285 7.386-9.552 7.51l-0.262 0.122zM3.088 5.539c-0.128 0.598-0.38 2.082-0.288 4.191 0.111 2.559 0.767 6.589 3.255 11.254 2.357 4.418 7.767 7.626 9.008 8.32 1.218-0.612 6.347-3.338 8.816-6.977 5.123-7.552 3.526-15.143 3.123-16.69-1.28-0.388-6.579-1.873-12.583-1.83-5.537 0.038-10.138 1.358-11.331 1.732z"></path>
</svg>
