<!-- Generated by IcoMoon.io -->
<svg version="1.1" xmlns="http://www.w3.org/2000/svg" width="34" height="32" viewBox="0 0 34 32">
<title>logo4</title>
<path fill="#fff" d="M32.883 21.342q-0.523-0.183-1.040-0.378-1.079-0.404-2.138-0.854-0.537-0.227-1.067-0.467c1.463-3.073 2.336-6.674 2.382-10.473l0-0.016c0.043-3.813-0.763-6.349-0.798-6.455l-0.106-0.324-0.322-0.107c-0.284-0.095-7.074-2.327-15.156-2.266-7.562 0.054-13.482 2.082-13.73 2.167l-0.328 0.115-0.1 0.333c-0.024 0.084-0.601 2.117-0.463 5.488 0.122 3.079 0.9 7.927 3.882 13.513 0.019 0.037 0.039 0.073 0.060 0.109q-0.838 0.961-1.727 1.881c0.213-0.222 0.867-0.334 1.149-0.442 0.389-0.15 0.783-0.288 1.176-0.432 3.504 5.438 10.2 8.959 10.501 9.115l0.294 0.152 0.3-0.14c0.288-0.135 6.708-3.182 10.302-7.745 0.101 0.018 0.201 0.033 0.3 0.048 0.352 0.055 0.765 0.091 1.185 0.1l0.009 0c3.445 0.081 5.854-1.951 6.519-2.551-0.068 0.066-0.959-0.329-1.082-0.371zM1.364 8.116c-0.105-2.411 0.183-4.109 0.329-4.792 3.866-1.204 8.316-1.924 12.926-1.982l0.030-0c6.865-0.050 12.928 1.649 14.391 2.093 0.4 1.532 1.829 8.254-1.615 15.639q-0.945-0.455-1.875-0.946c-2.75-1.454-5.3-3.171-7.805-5-0.654-0.477-1.278-1-1.911-1.505-0.037-0.025-0.067-0.057-0.088-0.095l-0.001-0.001c-0.122-0.26 0.622-0.693 0.796-0.787 0.331-0.186 0.724-0.302 1.142-0.316l0.004-0c0.401 0 0.799 0.106 1.201 0.106 0.567 0 0.954-0.381 1.077-0.916 0.157-0.69-0.085-1.295-0.596-1.771-0.753-0.701-1.642-1.273-2.525-1.795-1.028-0.61-2.148-1.278-3.348-1.448-0.29-0.041-0.601-0.046-0.854 0.098-0.457 0.259-0.589 0.826-0.394 1.294 0.087 0.206 0.288 0.341 0.445 0.488 0.132 0.108 0.226 0.257 0.264 0.428l0.001 0.005c0.001 0.017 0.002 0.036 0.002 0.055 0 0.113-0.025 0.219-0.070 0.315l0.002-0.005c-0.090 0.218-0.191 0.433-0.285 0.649-0.029 0.070-0.060 0.138-0.089 0.207-2.092 4.772-4.646 8.886-7.694 12.578l0.072-0.089c-2.69-5.181-3.408-9.647-3.533-12.507zM15.389 30.496c-1.301-0.732-6.611-3.871-9.562-8.285 3.323-1.746 7.943-8.155 8.355-8.604 0.181-0.198 0.537 0.276 0.899 0.589 1.679 1.455 3.022 3.248 4.604 4.8 0.854 0.837 1.714 1.666 2.561 2.515 0.383 0.384 0.763 0.773 1.134 1.17 0.341 0.366 0.679 0.748 1.126 0.985l0.066 0.033c-3.027 3.562-7.929 6.165-9.187 6.797z"></path>
</svg>
