<svg aria-hidden="true" style="position: absolute; width: 0; height: 0; overflow: hidden;" version="1.1" xmlns="http://www.w3.org/2000/svg" xmlns:xlink="http://www.w3.org/1999/xlink">
<defs>
<symbol id="icon-bookmark" viewBox="0 0 20 20">
<path d="M14 2v17l-4-4-4 4v-17c0-0.553 0.585-1.020 1-1h6c0.689-0.020 1 0.447 1 1z"></path>
</symbol>
<symbol id="icon-chevron-thin-right" viewBox="0 0 20 20">
<path d="M13.25 10l-7.141-7.42c-0.268-0.27-0.268-0.707 0-0.979 0.268-0.27 0.701-0.27 0.969 0l7.83 7.908c0.268 0.271 0.268 0.709 0 0.979l-7.83 7.908c-0.268 0.271-0.701 0.27-0.969 0s-0.268-0.707 0-0.979l7.141-7.417z"></path>
</symbol>
<symbol id="icon-aircraft-take-off" viewBox="0 0 20 20">
<path d="M19.87 6.453c0.119 0.257 0.127 1.29-4.884 3.642l-4.913 2.306c-1.71 0.803-4.191 1.859-5.285 2.151-0.766 0.204-1.497-0.316-1.497-0.316s-2.206-1.975-2.792-2.419c-0.585-0.444-0.535-0.67 0.215-0.91 0.467-0.149 3.13 0.493 4.265 0.78 1.339-0.8 2.562-1.486 3.141-1.798-1.396-1.033-4.008-2.962-4.841-3.55-0.799-0.565 0.010-0.768 0.010-0.768 0.368-0.099 1.162-0.228 1.562-0.144 2.721 0.569 7.263 2.071 7.611 2.186 0.832-0.436 2.128-1.092 2.922-1.465 2.075-0.974 4.327-0.037 4.486 0.305z"></path>
</symbol>
<symbol id="icon-chat" viewBox="0 0 20 20">
<path d="M5.8 12.2v-6.2h-3.8c-1.1 0-2 0.9-2 2v6c0 1.1 0.9 2 2 2h1v3l3-3h5c1.1 0 2-0.9 2-2v-1.82c-0.064 0.014-0.132 0.021-0.2 0.021l-7-0.001zM18 1h-9c-1.1 0-2 0.9-2 2v8h7l3 3v-3h1c1.1 0 2-0.899 2-2v-6c0-1.1-0.9-2-2-2z"></path>
</symbol>
<symbol id="icon-home" viewBox="0 0 20 20">
<path d="M18.672 11h-1.672v6c0 0.445-0.194 1-1 1h-4v-6h-4v6h-4c-0.806 0-1-0.555-1-1v-6h-1.672c-0.598 0-0.47-0.324-0.060-0.748l8.024-8.032c0.195-0.202 0.451-0.302 0.708-0.312 0.257 0.010 0.513 0.109 0.708 0.312l8.023 8.031c0.411 0.425 0.539 0.749-0.059 0.749z"></path>
</symbol>
<symbol id="icon-location-pin" viewBox="0 0 20 20">
<path d="M10 2.009c-2.762 0-5 2.229-5 4.99 0 4.774 5 11 5 11s5-6.227 5-11c0-2.76-2.238-4.99-5-4.99zM10 9.76c-1.492 0-2.7-1.209-2.7-2.7s1.208-2.7 2.7-2.7c1.49 0 2.699 1.209 2.699 2.7s-1.209 2.7-2.699 2.7z"></path>
</symbol>
<symbol id="icon-magnifying-glass" viewBox="0 0 20 20">
<path d="M17.545 15.467l-3.779-3.779c0.57-0.935 0.898-2.035 0.898-3.21 0-3.417-2.961-6.377-6.378-6.377s-6.186 2.769-6.186 6.186c0 3.416 2.961 6.377 6.377 6.377 1.137 0 2.2-0.309 3.115-0.844l3.799 3.801c0.372 0.371 0.975 0.371 1.346 0l0.943-0.943c0.371-0.371 0.236-0.84-0.135-1.211zM4.004 8.287c0-2.366 1.917-4.283 4.282-4.283s4.474 2.107 4.474 4.474c0 2.365-1.918 4.283-4.283 4.283s-4.473-2.109-4.473-4.474z"></path>
</symbol>
<symbol id="icon-map" viewBox="0 0 20 20">
<path d="M19.447 3.718l-6-3c-0.281-0.141-0.613-0.141-0.895 0l-5.63 2.815-5.606-1.869c-0.306-0.102-0.64-0.051-0.901 0.138s-0.415 0.49-0.415 0.811v13.001c0 0.379 0.214 0.725 0.553 0.894l6 3c0.141 0.070 0.294 0.106 0.447 0.106s0.307-0.035 0.447-0.106l5.63-2.814 5.606 1.869c0.305 0.1 0.64 0.049 0.901-0.139s0.415-0.49 0.415-0.81v-13.002c0.001-0.379-0.213-0.725-0.552-0.894zM8 5.231l4-2v11.763l-4 2v-11.763zM2 4l4 1.333v11.661l-4-2v-10.994zM18 16.227l-4-1.334v-11.662l4 2v10.996z"></path>
</symbol>
<symbol id="icon-star" viewBox="0 0 20 20">
<path d="M10 1.3l2.388 6.722h6.412l-5.232 3.948 1.871 6.928-5.439-4.154-5.438 4.154 1.87-6.928-5.233-3.948h6.412l2.389-6.722z"></path>
</symbol>
<symbol id="icon-logo4" viewBox="0 0 34 32">
<path fill="#fff" style="fill: var(--color1, #fff)" d="M32.883 21.342q-0.523-0.183-1.040-0.378-1.079-0.404-2.138-0.854-0.537-0.227-1.067-0.467c1.463-3.073 2.336-6.674 2.382-10.473l0-0.016c0.043-3.813-0.763-6.349-0.798-6.455l-0.106-0.324-0.322-0.107c-0.284-0.095-7.074-2.327-15.156-2.266-7.562 0.054-13.482 2.082-13.73 2.167l-0.328 0.115-0.1 0.333c-0.024 0.084-0.601 2.117-0.463 5.488 0.122 3.079 0.9 7.927 3.882 13.513 0.019 0.037 0.039 0.073 0.060 0.109q-0.838 0.961-1.727 1.881c0.213-0.222 0.867-0.334 1.149-0.442 0.389-0.15 0.783-0.288 1.176-0.432 3.504 5.438 10.2 8.959 10.501 9.115l0.294 0.152 0.3-0.14c0.288-0.135 6.708-3.182 10.302-7.745 0.101 0.018 0.201 0.033 0.3 0.048 0.352 0.055 0.765 0.091 1.185 0.1l0.009 0c3.445 0.081 5.854-1.951 6.519-2.551-0.068 0.066-0.959-0.329-1.082-0.371zM1.364 8.116c-0.105-2.411 0.183-4.109 0.329-4.792 3.866-1.204 8.316-1.924 12.926-1.982l0.030-0c6.865-0.050 12.928 1.649 14.391 2.093 0.4 1.532 1.829 8.254-1.615 15.639q-0.945-0.455-1.875-0.946c-2.75-1.454-5.3-3.171-7.805-5-0.654-0.477-1.278-1-1.911-1.505-0.037-0.025-0.067-0.057-0.088-0.095l-0.001-0.001c-0.122-0.26 0.622-0.693 0.796-0.787 0.331-0.186 0.724-0.302 1.142-0.316l0.004-0c0.401 0 0.799 0.106 1.201 0.106 0.567 0 0.954-0.381 1.077-0.916 0.157-0.69-0.085-1.295-0.596-1.771-0.753-0.701-1.642-1.273-2.525-1.795-1.028-0.61-2.148-1.278-3.348-1.448-0.29-0.041-0.601-0.046-0.854 0.098-0.457 0.259-0.589 0.826-0.394 1.294 0.087 0.206 0.288 0.341 0.445 0.488 0.132 0.108 0.226 0.257 0.264 0.428l0.001 0.005c0.001 0.017 0.002 0.036 0.002 0.055 0 0.113-0.025 0.219-0.070 0.315l0.002-0.005c-0.090 0.218-0.191 0.433-0.285 0.649-0.029 0.070-0.060 0.138-0.089 0.207-2.092 4.772-4.646 8.886-7.694 12.578l0.072-0.089c-2.69-5.181-3.408-9.647-3.533-12.507zM15.389 30.496c-1.301-0.732-6.611-3.871-9.562-8.285 3.323-1.746 7.943-8.155 8.355-8.604 0.181-0.198 0.537 0.276 0.899 0.589 1.679 1.455 3.022 3.248 4.604 4.8 0.854 0.837 1.714 1.666 2.561 2.515 0.383 0.384 0.763 0.773 1.134 1.17 0.341 0.366 0.679 0.748 1.126 0.985l0.066 0.033c-3.027 3.562-7.929 6.165-9.187 6.797z"></path>
</symbol>
<symbol id="icon-logo3" viewBox="0 0 32 32">
<path fill="#fff" style="fill: var(--color1, #fff)" d="M12.55 9.745c-2.176 5.005-5.19 9.606-8.988 13.532 0.188-0.194 0.758-0.292 1.005-0.386 0.58-0.223 1.174-0.417 1.749-0.652 2.922-1.196 7.315-7.295 7.692-7.706 0.159-0.173 0.47 0.241 0.786 0.515 1.469 1.273 2.643 2.841 4.028 4.198 0.746 0.732 1.499 1.457 2.235 2.199 0.335 0.337 0.667 0.676 0.992 1.023 0.299 0.319 0.594 0.654 0.985 0.863 0.466 0.249 1.021 0.358 1.538 0.434 0.346 0.051 0.695 0.081 1.045 0.087 3.013 0.069 5.119-1.705 5.701-2.231-0.065 0.059-0.843-0.286-0.95-0.323-0.304-0.107-0.608-0.217-0.91-0.331-0.628-0.237-1.252-0.486-1.87-0.749-1.235-0.526-2.449-1.103-3.636-1.731-2.404-1.271-4.636-2.775-6.829-4.378-0.572-0.417-1.118-0.875-1.671-1.316-0.030-0.025-0.062-0.049-0.077-0.084-0.103-0.227 0.544-0.606 0.697-0.688 0.302-0.163 0.657-0.273 1.003-0.276 0.351-0.002 0.699 0.093 1.051 0.092 0.496-0.001 0.834-0.333 0.941-0.801 0.138-0.604-0.075-1.133-0.522-1.549-0.659-0.613-1.436-1.114-2.208-1.57-0.899-0.531-1.877-1.118-2.928-1.266-0.253-0.036-0.525-0.039-0.748 0.086-0.4 0.226-0.515 0.722-0.343 1.132 0.075 0.18 0.252 0.299 0.388 0.428 0.11 0.103 0.211 0.229 0.231 0.379 0.015 0.11-0.016 0.22-0.058 0.322-0.078 0.192-0.166 0.379-0.249 0.567-0.028 0.059-0.054 0.118-0.080 0.179z"></path>
<path fill="#fff" style="fill: var(--color1, #fff)" d="M15.037 30.619l-0.257-0.133c-0.282-0.146-6.928-3.641-9.759-8.948-2.607-4.887-3.285-9.124-3.395-11.819-0.121-2.947 0.384-4.725 0.406-4.799l0.084-0.291 0.287-0.099c0.218-0.076 5.396-1.85 12.009-1.895 7.069-0.053 13.006 1.899 13.255 1.982l0.282 0.094 0.092 0.283c0.030 0.093 0.735 2.311 0.698 5.646-0.034 3.070-0.736 7.705-3.887 12.349-2.982 4.397-9.285 7.386-9.552 7.51l-0.262 0.122zM3.088 5.539c-0.128 0.598-0.38 2.082-0.288 4.191 0.111 2.559 0.767 6.589 3.255 11.254 2.357 4.418 7.767 7.626 9.008 8.32 1.218-0.612 6.347-3.338 8.816-6.977 5.123-7.552 3.526-15.143 3.123-16.69-1.28-0.388-6.579-1.873-12.583-1.83-5.537 0.038-10.138 1.358-11.331 1.732z"></path>
</symbol>
</defs>
</svg>
